<svg width="32" height="32" viewBox="0 0 32 32" fill="none" xmlns="http://www.w3.org/2000/svg">
<path fill-rule="evenodd" clip-rule="evenodd" d="M21.333 24V24C20.229 24 19.333 23.104 19.333 22V10C19.333 8.896 20.229 8 21.333 8V8C22.437 8 23.333 8.896 23.333 10V22C23.333 23.104 22.437 24 21.333 24Z" stroke="white" stroke-linecap="round" stroke-linejoin="round"/>
<path fill-rule="evenodd" clip-rule="evenodd" d="M10.6665 24V24C9.5625 24 8.6665 23.104 8.6665 22V10C8.6665 8.896 9.5625 8 10.6665 8V8C11.7705 8 12.6665 8.896 12.6665 10V22C12.6665 23.104 11.7705 24 10.6665 24Z" stroke="white" stroke-linecap="round" stroke-linejoin="round"/>
</svg>
